<?xml version="1.0" encoding="UTF-8"?>
<svg width="313px" height="312px" viewBox="0 0 313 312" version="1.1" xmlns="http://www.w3.org/2000/svg" xmlns:xlink="http://www.w3.org/1999/xlink">
    <!-- Generator: Sketch 51.2 (57519) - http://www.bohemiancoding.com/sketch -->
    <title>1488285</title>
    <desc>Created with Sketch.</desc>
    <defs></defs>
    <g id="Page-1" stroke="none" stroke-width="1" fill="none" fill-rule="evenodd">
        <g id="Main" transform="translate(-22.000000, -2801.000000)">
            <g id="5" transform="translate(22.000000, 2801.000000)">
                <g id="1488285">
                    <g id="Group" transform="translate(1.218721, 0.000000)">
                        <g transform="translate(171.230303, 116.387857)"></g>
                    </g>
                    <g id="Group" fill="#000000" fill-rule="nonzero">
                        <path d="M96.796917,45.8373163 C99.0558165,45.8373163 101.353715,45.4966838 103.619317,44.7819039 C103.619317,44.7819039 103.619317,44.7819039 103.619317,44.7812945 C115.558518,41.0105717 122.204813,28.2304537 118.434699,16.2918626 C116.608446,10.5078126 112.639681,5.78100316 107.258418,2.9828197 C101.877156,0.183417514 95.7280987,-0.351601014 89.9446581,1.47465243 C78.0054576,5.24476591 71.3591626,18.0248839 75.1286667,29.9646937 C78.1840003,39.6389012 87.1519589,45.8373163 96.796917,45.8373163 Z M84.746813,16.868927 C86.4188982,13.653941 89.2420654,11.2823098 92.6977489,10.1915545 C94.0444356,9.7662209 95.4252465,9.5547728 96.7981358,9.5547728 C98.9479597,9.5547728 101.080112,10.0721199 103.042253,11.09158 C106.257239,12.7636652 108.628261,15.5874419 109.719625,19.0431253 C111.971822,26.1762994 108.000619,33.812196 100.867445,36.0650018 C93.7342711,38.320245 86.0983746,34.3466052 83.8455688,27.213431 C82.7548135,23.7571382 83.0747277,20.0833037 84.746813,16.868927 Z" id="Shape"></path>
                        <path d="M26.9964987,266.999839 C21.038781,265.857897 14.9951434,267.105867 9.97523155,270.509755 C4.95592903,273.914862 1.56300971,279.070661 0.421677473,285.02716 C-0.720264123,290.983659 0.526487481,297.028515 3.93159401,302.048427 C7.33609118,307.06773 12.4918905,310.460649 18.4489988,311.602591 C19.8870896,311.878021 21.3178681,312.010862 22.7309751,312.010862 C33.401487,312.010862 42.9422445,304.433464 45.0232107,293.575269 C45.0232107,293.57466 45.0232107,293.57466 45.0232107,293.57466 C47.3796078,281.277765 39.2927844,269.356236 26.9964987,266.999839 Z M36.0461116,291.854435 C34.6384888,299.201495 27.5150645,304.036161 20.1692235,302.624882 C16.6105581,301.943008 13.5296314,299.916275 11.495586,296.917002 C9.46154064,293.918339 8.71629274,290.306659 9.39877651,286.747994 C10.0806509,283.189329 12.107384,280.108402 15.1066564,278.074966 C17.3801805,276.532674 20.0059149,275.731365 22.6944135,275.731365 C23.5517837,275.731365 24.4158569,275.81302 25.276274,275.977547 C32.6227243,277.38517 37.4543438,284.507985 36.0461116,291.854435 Z" id="Shape"></path>
                        <path d="M145.168564,235.220469 L123.181618,236.954709 L109.288198,219.826804 C106.945816,216.938435 102.161727,218.023706 101.294607,221.640261 L97.8517201,235.994966 C96.5172206,241.55599 105.346245,243.943465 106.739852,238.12651 L108.023166,232.776934 L117.596829,244.579637 C118.544384,245.748391 120.009896,246.374813 121.505876,246.256597 L136.656407,245.061642 L128.389822,257.813729 C127.571451,259.075715 127.427032,260.660052 128.002878,262.049394 L133.821052,276.08906 L119.138511,272.167216 C117.685795,271.778444 116.134363,272.130654 114.990594,273.108068 L103.436509,282.979709 L102.629106,267.804194 C102.54928,266.302121 101.735175,264.935325 100.452471,264.149859 L87.4932008,256.212329 L93.0584903,254.070427 C98.395879,252.015664 95.3576075,243.393822 89.7758653,245.53938 L75.5680156,251.007172 C72.0977075,252.34289 71.6516556,257.227524 74.8221583,259.170165 L93.6294611,270.689516 L94.8012614,292.713633 C94.9968661,296.400874 99.457385,298.402623 102.333567,295.945682 L119.10134,281.619007 L140.409458,287.309824 C144.001638,288.268958 147.234296,284.579889 145.81083,281.144924 L137.366921,260.770346 L149.364011,242.264067 C151.382213,239.147798 148.87896,234.917617 145.168564,235.220469 Z" id="Shape"></path>
                        <path d="M282.005951,63.5940816 C282.433722,61.9073717 281.866407,60.1249922 280.543485,58.9952378 L268.660955,48.850604 C264.311949,45.1365517 258.178126,51.9199529 262.726393,55.8021887 L267.565935,59.9342623 L252.703632,63.1053744 C251.232026,63.4198045 250.010258,64.4374365 249.434413,65.8267785 L243.621113,79.8688821 L236.012029,66.7140074 C235.258859,65.411804 233.913391,64.5635741 232.413755,64.4459676 L217.263224,63.2564958 L227.423092,51.9540771 C228.428537,50.8352912 228.819746,49.2936091 228.468145,47.8311439 L224.917402,33.0541515 L238.805947,39.224536 C240.180664,39.8351153 241.768048,39.7303053 243.050142,38.9442302 L255.950304,31.0353401 L255.362272,36.3843067 C254.737068,42.0690309 263.793993,43.3261416 264.447837,37.3830486 L266.05533,22.7638806 C266.462992,19.0565312 262.303497,16.4186096 259.123854,18.3679539 L240.321426,29.8952266 L220.166218,20.9412833 C216.768424,19.4337254 212.997701,22.5694946 213.867258,26.1854398 L219.020011,47.6294456 L204.275924,64.0316024 C201.790342,66.796271 203.609893,71.3524596 207.317242,71.6425152 L229.304188,73.3688335 L240.347019,92.4600983 C242.187288,95.6421789 247.107874,95.3454203 248.525856,91.9202049 L256.961843,71.5419707 L278.530768,66.9394708 C280.230883,66.57812 281.578789,65.2807915 282.005951,63.5940816 Z" id="Shape"></path>
                        <path d="M13.3821662,161.759013 C17.4721939,163.535908 19.6597981,164.624835 20.8023491,168.0988 C21.9449001,171.572155 20.8303797,173.747572 18.5934172,177.604824 C16.1608501,181.80088 13.1329377,187.021881 15.6093788,194.551749 C18.0852106,202.080398 23.6206415,204.486153 28.0689732,206.418435 C32.1583916,208.195331 34.3453864,209.283649 35.4879374,212.756394 C36.629879,216.22914 35.5153586,218.403338 33.2790055,222.26059 C30.845829,226.456037 27.8179167,231.676429 30.2937484,239.205687 C32.1072053,244.721009 40.830201,241.987418 38.9765263,236.350224 C37.8345847,232.877478 38.9491051,230.70328 41.1854582,226.846028 C43.6186347,222.650581 46.6465471,217.430189 44.1707153,209.900931 C41.6948836,202.371672 36.1588433,199.966526 31.711121,198.034244 C27.6217026,196.257958 25.4340983,195.169031 24.2921567,191.696285 C23.1496058,188.222931 24.2641262,186.047514 26.5010886,182.189652 C28.9342651,177.994205 31.9615681,172.773204 29.4857364,165.243336 C27.0099046,157.713469 21.4738644,155.307713 17.0255327,153.374822 C12.9361143,151.597926 10.74851,150.508999 9.60595908,147.035644 C8.46340813,143.56168 9.5779285,141.386263 11.8148909,137.528402 C14.2480675,133.332345 17.2753705,128.111344 14.7989294,120.580867 C13.011675,115.147809 4.24785212,117.755872 6.11615144,123.43633 C7.2587024,126.910295 6.14418202,129.085712 3.90721959,132.943573 C1.47404307,137.13963 -1.55325994,142.36063 0.923181173,149.891108 C3.39840357,157.420975 8.9344438,159.826121 13.3821662,161.759013 Z" id="Shape"></path>
                        <path d="M180.884402,51.5866327 C182.579643,49.7165053 182.437662,46.825699 180.566925,45.1310675 C178.696798,43.4352172 175.805991,43.5778075 174.11136,45.4479349 C171.655637,48.1577611 169.212711,48.2595243 164.754629,48.2254001 C159.907166,48.1839636 153.869622,48.132168 148.546249,54.0039659 C143.223485,59.8769825 143.86697,65.8779648 144.384317,70.7004438 C144.859618,75.1335416 144.993677,77.5740304 142.537954,80.2838566 C140.082232,82.9930734 137.63504,83.0991021 133.181833,83.0607124 C128.328886,83.0198853 122.296826,82.9656522 116.974062,88.8386688 C111.651298,94.711076 112.296002,100.712058 112.813349,105.533928 C113.289259,109.967026 113.423319,112.406296 110.968205,115.115513 C108.513701,117.82412 106.071384,117.92954 101.613912,117.89115 C96.7627929,117.851541 90.7289051,117.79548 85.4067504,123.667278 C83.7115095,125.537406 83.8534905,128.428212 85.7242272,130.123453 C86.5992689,130.916231 87.6973366,131.306831 88.791748,131.306831 C90.0366715,131.306831 91.2773295,130.801062 92.1797925,129.805976 C94.634906,127.097368 97.0735667,126.993777 101.534086,127.030339 C106.384595,127.069338 112.419092,127.126008 117.741247,121.253601 C123.064011,115.381194 122.419308,109.380212 121.901961,104.558342 C121.42605,100.125244 121.291991,97.685974 123.747104,94.9767572 C126.202218,92.266931 128.63966,92.1609023 133.103226,92.1999014 C137.948251,92.2382911 143.988232,92.2943522 149.311606,86.421945 C154.634979,80.5495378 153.990885,74.5479461 153.473538,69.725467 C152.998237,65.2923693 152.864178,62.8518805 155.3199,60.1426636 C157.776233,57.4334468 160.220378,57.3237619 164.676631,57.3651984 C169.525313,57.4096818 175.561638,57.45904 180.884402,51.5866327 Z" id="Shape"></path>
                        <path d="M204.151614,162.601149 C209.935664,160.774896 214.661864,156.805521 217.460048,151.424259 C220.258231,146.043605 220.793859,139.895158 218.967606,134.111108 C217.141352,128.327667 213.171978,123.601467 207.791325,120.802674 C202.410062,118.004491 196.261005,117.468254 190.477564,119.294507 C184.694124,121.120761 179.967314,125.090135 177.169131,130.471398 C174.370947,135.852051 173.83532,142.001108 175.661573,147.784548 C177.487826,153.568598 181.457201,158.294798 186.837854,161.093591 C190.121698,162.801019 193.690113,163.666311 197.288387,163.666311 C199.586895,163.666311 201.89698,163.312882 204.151614,162.601149 Z M185.278501,134.688782 C186.950586,131.473796 189.774362,129.102164 193.230046,128.011409 C194.576733,127.586076 195.956934,127.375237 197.330433,127.375237 C199.479647,127.375237 201.612409,127.891975 203.57455,128.912044 C206.789536,130.58352 209.161167,133.407297 210.251922,136.86298 C211.342678,140.318663 211.023373,143.991889 209.351288,147.207484 C209.351288,147.207484 209.351288,147.207484 209.351288,147.207484 C207.679812,150.421861 204.856035,152.793492 201.400352,153.884856 C197.945278,154.975612 194.272052,154.656916 191.056457,152.983612 C184.418693,149.533413 181.827083,141.325936 185.278501,134.688782 Z" id="Shape"></path>
                        <path d="M299.373334,214.201797 C293.992072,211.403614 287.843624,210.867986 282.059574,212.694239 C276.275524,214.520493 271.549324,218.489867 268.751141,223.87052 C265.952348,229.251783 265.417329,235.400231 267.242973,241.184281 C269.069227,246.967721 273.038601,251.693921 278.419255,254.492714 C283.456229,257.112355 287.964887,249.154107 282.636639,246.382735 C279.421653,244.711259 277.050631,241.887483 275.959266,238.431799 C274.867902,234.976116 275.187816,231.302891 276.86051,228.087295 C278.531986,224.872918 281.355763,222.501287 284.811446,221.409923 C288.265911,220.318558 291.940355,220.637863 295.155341,222.311167 C301.791886,225.762585 304.383497,233.970062 300.932688,240.605997 C300.175862,242.060541 299.181386,243.34751 297.977899,244.431563 C293.728219,248.258956 299.650593,255.223947 304.09466,251.223495 C306.113471,249.405773 307.777635,247.251683 309.042058,244.822772 C314.818795,233.715349 310.481367,219.978535 299.373334,214.201797 Z" id="Shape"></path>
                        <path d="M247.01647,178.387243 C244.60523,177.645651 242.047135,179.000259 241.305543,181.413327 C240.231241,184.909228 238.065573,186.04142 234.010889,187.898141 C229.601556,189.916953 224.113655,192.430565 221.785289,200.007353 C219.456313,207.584142 222.585379,212.745426 225.10021,216.892733 C227.412124,220.706111 228.568081,222.858373 227.494387,226.353664 C226.420085,229.848347 224.254418,230.980539 220.200342,232.83726 C215.791009,234.856072 210.303109,237.369684 207.974742,244.945863 C205.646376,252.522042 208.775442,257.682716 211.290273,261.829415 C213.602186,265.642793 214.758143,267.794445 213.68445,271.289127 C212.610757,274.7832 210.44509,275.914783 206.391014,277.770895 C201.981682,279.789706 196.493781,282.3021 194.165414,289.87767 C192.411675,295.583721 201.170013,298.200925 202.902425,292.562512 C203.976118,289.068439 206.141786,287.936856 210.195861,286.080744 C214.605194,284.061933 220.093095,281.54954 222.421461,273.97397 C224.749828,266.39779 221.620761,261.237116 219.105931,257.090418 C216.794017,253.27704 215.63806,251.125388 216.711753,247.630705 C217.786056,244.136023 219.951723,243.003831 224.005798,241.14711 C228.415131,239.128298 233.903032,236.614686 236.231398,229.038507 C238.559765,221.461718 235.430699,216.301044 232.916477,212.153737 C230.604563,208.340358 229.448607,206.187488 230.5223,202.692196 C231.596602,199.196904 233.76227,198.064712 237.816954,196.207991 C242.226287,194.18857 247.714188,191.675567 250.042554,184.098169 C250.784146,181.685711 249.428928,179.128834 247.01647,178.387243 Z" id="Shape"></path>
                        <path d="M268.773078,143.744488 C266.885888,145.42023 266.714658,148.308598 268.390399,150.196397 L286.114259,170.154173 C289.836233,174.345964 296.95722,168.598475 292.948847,164.084333 L275.224987,144.126557 C273.549245,142.238758 270.660267,142.068137 268.773078,143.744488 Z" id="Shape"></path>
                        <path d="M160.842535,185.350405 L134.368867,188.754293 C128.488538,189.510509 129.724322,198.571091 135.534574,197.819749 L162.008241,194.415861 C167.680169,193.686457 166.773441,184.577736 160.842535,185.350405 Z" id="Shape"></path>
                        <path d="M290.391361,303.597421 L267.944957,289.154968 C263.135884,286.060026 257.970335,293.606956 262.999387,296.842051 L285.445791,311.284504 C290.288379,314.400165 295.398476,306.819111 290.391361,303.597421 Z" id="Shape"></path>
                        <path d="M83.8985831,191.594522 C87.8612545,191.594522 89.8392387,186.833589 87.3140488,183.989703 L69.590189,164.031928 C65.7932636,159.754826 58.7856178,165.63089 62.7556015,170.101768 L80.4794613,190.059543 C81.3831429,191.075956 82.6378162,191.594522 83.8985831,191.594522 Z" id="Shape"></path>
                        <path d="M4.58421912,26.8825483 C5.66339658,26.8825483 6.74683957,26.5023073 7.61700638,25.7290288 L27.5741724,8.00516902 C29.4613619,6.32942762 29.6325923,3.4410588 27.9568508,1.55325994 C26.2811094,-0.33453892 23.3921313,-0.505159863 21.5049418,1.1711909 L1.5477757,18.8956601 C-0.339413804,20.5714015 -0.510644108,23.4597703 1.1650973,25.3475691 C2.06816957,26.3645918 3.32345222,26.8825483 4.58421912,26.8825483 Z" id="Shape"></path>
                        <path d="M35.0589476,67.6944684 C33.3832062,65.8072789 30.494228,65.6360486 28.6070385,67.3123994 C26.719849,68.9881408 26.5486187,71.8765096 28.2243601,73.7643085 L45.9482199,93.7220839 C46.8512922,94.7391066 48.1065748,95.2576724 49.3673417,95.2576724 C50.4465192,95.2576724 51.5299622,94.8774314 52.400129,94.104153 C54.2873185,92.4284116 54.4585488,89.5400427 52.7828074,87.6522439 L35.0589476,67.6944684 Z" id="Shape"></path>
                        <path d="M303.180619,31.1048072 C305.2951,36.4921635 313.86149,33.2978957 311.68912,27.7655116 L301.936305,2.91883684 C299.846808,-2.40514593 291.242637,0.6928429 293.427804,6.25813244 L303.180619,31.1048072 Z" id="Shape"></path>
                        <path d="M300.643242,93.3595144 C299.767591,90.9921488 297.138809,89.7831776 294.772053,90.6570005 L269.736477,99.911968 C264.348511,101.903967 267.371549,110.528247 272.905761,108.48567 L297.941337,99.2307029 C300.308703,98.3556612 301.518283,95.7274894 300.643242,93.3595144 Z" id="Shape"></path>
                    </g>
                </g>
            </g>
        </g>
    </g>
</svg>